<svg width="1254" height="1254" viewBox="0 0 1254 1254" fill="none" xmlns="http://www.w3.org/2000/svg">
<g clip-path="url(#clip0_1333_573)">
<path d="M627 1254C973.283 1254 1254 973.283 1254 627C1254 280.717 973.283 0 627 0C280.717 0 0 280.717 0 627C0 973.283 280.717 1254 627 1254Z" fill="#144084"/>
<path d="M736.987 1106L644.256 1013.33L720.727 936.906L736.987 953.156C747.032 963.191 755 975.105 760.436 988.218C765.872 1001.33 768.671 1015.38 768.671 1029.58C768.671 1043.77 765.872 1057.83 760.436 1070.94C755 1084.05 747.032 1095.97 736.987 1106Z" fill="url(#paint0_linear_1333_573)"/>
<path d="M865.371 463.921L921.558 520.072C926.434 524.941 930.302 530.722 932.941 537.086C935.581 543.449 936.939 550.27 936.939 557.159C936.939 564.047 935.581 570.868 932.941 577.231C930.302 583.595 926.434 589.376 921.558 594.245L648.891 866.792C628.844 886.834 617.583 914.012 617.583 942.349C617.583 970.687 628.844 997.864 648.891 1017.91L997.216 669.802C1027.11 639.925 1043.9 599.407 1043.9 557.159C1043.9 514.91 1027.11 474.392 997.216 444.516L941.028 388.364L865.371 463.921Z" fill="url(#paint1_linear_1333_573)"/>
<path d="M921.558 520.152C921.558 520.152 1032.77 615.58 936.007 730.998L997.163 669.882C1027.05 640.006 1043.85 599.487 1043.85 557.239C1043.85 514.99 1027.05 474.472 997.163 444.596L864.398 311.916C844.352 331.957 833.09 359.135 833.09 387.472C833.09 415.81 844.352 442.987 864.398 463.029L921.558 520.152Z" fill="url(#paint2_linear_1333_573)"/>
<path d="M725.361 941.471C725.361 941.471 650.342 1019.34 708.807 1077.78L644.27 1013.29L686.473 928.814L725.361 941.471Z" fill="url(#paint3_linear_1333_573)"/>
<path d="M517.845 147L610.576 239.673L534.106 316.094L517.845 299.844C497.575 279.569 486.189 252.082 486.189 223.422C486.189 194.762 497.575 167.275 517.845 147Z" fill="url(#paint4_linear_1333_573)"/>
<path d="M389.502 788.999L333.315 732.848C328.439 727.979 324.571 722.198 321.932 715.834C319.293 709.471 317.934 702.65 317.934 695.761C317.934 688.873 319.293 682.052 321.932 675.689C324.571 669.325 328.439 663.544 333.315 658.675L606.035 386.128C626.082 366.086 637.343 338.909 637.343 310.571C637.343 282.233 626.082 255.056 606.035 235.014L257.71 583.118C227.819 612.994 211.027 653.513 211.027 695.761C211.027 738.01 227.819 778.528 257.71 808.404L313.898 864.556L389.502 788.999Z" fill="url(#paint5_linear_1333_573)"/>
<path d="M333.288 732.901C333.288 732.901 222.085 637.473 318.838 522.055L257.683 583.172C227.792 613.048 211 653.566 211 695.815C211 738.063 227.792 778.582 257.683 808.458L390.447 941.138C410.494 921.096 421.756 893.919 421.756 865.581C421.756 837.244 410.494 810.066 390.447 790.024L333.288 732.901Z" fill="url(#paint6_linear_1333_573)"/>
<path d="M529.524 311.503C529.524 311.503 604.543 233.63 546.078 175.189L610.616 239.686L568.399 324.16L529.524 311.503Z" fill="url(#paint7_linear_1333_573)"/>
<path d="M620.924 797.837C588.62 797.837 557.042 788.264 530.183 770.328C503.324 752.393 482.39 726.901 470.028 697.075C457.666 667.25 454.432 634.431 460.734 602.768C467.036 571.106 482.591 542.022 505.433 519.194C528.275 496.367 557.377 480.821 589.06 474.523C620.742 468.225 653.582 471.457 683.427 483.812C713.271 496.166 738.78 517.086 756.726 543.929C774.673 570.771 784.252 602.329 784.252 634.612C784.199 677.885 766.974 719.372 736.356 749.971C705.737 780.57 664.225 797.784 620.924 797.837ZM630.646 699.534C630.037 699.54 629.453 699.772 629.007 700.186C628.774 700.404 628.588 700.668 628.462 700.961C628.336 701.255 628.272 701.571 628.275 701.89V779.59C628.27 779.9 628.327 780.209 628.443 780.498C628.56 780.786 628.733 781.048 628.953 781.267C629.173 781.487 629.435 781.66 629.724 781.777C630.012 781.893 630.321 781.951 630.632 781.945C630.804 781.939 630.973 781.913 631.138 781.866C656.002 776.209 678.789 749.657 692.12 710.767C692.223 710.459 692.263 710.132 692.238 709.808C692.213 709.483 692.123 709.167 691.974 708.877C691.822 708.589 691.61 708.337 691.353 708.138C691.096 707.938 690.799 707.795 690.482 707.72C670.913 702.809 650.867 700.047 630.699 699.481C630.699 699.481 630.685 699.534 630.646 699.534ZM611.082 699.534C590.912 700.081 570.864 702.844 551.299 707.773C550.985 707.855 550.69 708 550.434 708.199C550.177 708.398 549.964 708.647 549.807 708.931C549.649 709.217 549.554 709.534 549.529 709.86C549.504 710.186 549.549 710.513 549.661 710.821C562.978 749.67 585.778 776.262 610.642 781.879C610.808 781.921 610.978 781.948 611.148 781.959C611.688 781.959 612.212 781.781 612.64 781.453C612.912 781.228 613.132 780.945 613.281 780.625C613.431 780.305 613.508 779.956 613.506 779.603V701.903C613.506 701.586 613.443 701.271 613.319 700.979C613.196 700.686 613.014 700.421 612.786 700.2C612.57 699.988 612.314 699.821 612.033 699.709C611.752 699.597 611.451 699.542 611.148 699.548L611.082 699.534ZM532.933 713.496C532.66 713.491 532.388 713.541 532.134 713.642C523.377 716.764 514.91 720.647 506.831 725.248C506.538 725.425 506.287 725.663 506.094 725.945C505.901 726.228 505.771 726.548 505.712 726.885C505.656 727.224 505.672 727.571 505.76 727.904C505.847 728.236 506.003 728.546 506.218 728.815C520.618 746.264 538.785 760.228 559.356 769.661C559.666 769.8 560.002 769.873 560.341 769.874C560.699 769.877 561.052 769.797 561.374 769.64C561.695 769.483 561.975 769.253 562.193 768.969C562.52 768.548 562.697 768.031 562.697 767.498C562.697 766.965 562.52 766.448 562.193 766.027C550.243 750.805 541.135 733.555 535.304 715.106C535.083 714.53 534.656 714.056 534.106 713.775C533.739 713.616 533.346 713.525 532.947 713.509L532.933 713.496ZM708.887 713.496C708.538 713.493 708.193 713.566 707.875 713.709C707.595 713.837 707.344 714.021 707.137 714.25C706.931 714.479 706.774 714.748 706.676 715.04C700.833 733.487 691.721 750.734 679.775 765.961C679.425 766.369 679.227 766.885 679.213 767.423C679.199 767.96 679.371 768.485 679.699 768.911C680.026 769.337 680.491 769.637 681.014 769.762C681.537 769.886 682.087 769.827 682.571 769.594C703.128 760.158 721.281 746.194 735.669 728.748C735.882 728.482 736.038 728.173 736.125 727.843C736.212 727.513 736.229 727.169 736.175 726.832C736.115 726.494 735.983 726.172 735.787 725.89C735.592 725.608 735.338 725.371 735.043 725.195C726.974 720.564 718.506 716.666 709.739 713.549C709.461 713.507 709.181 713.48 708.9 713.469L708.887 713.496ZM721.233 641.998C720.619 641.998 720.029 642.237 719.589 642.665C719.149 643.092 718.893 643.674 718.875 644.287C718.335 661.936 716.002 679.483 711.91 696.659C711.775 697.222 711.852 697.814 712.128 698.323C712.403 698.832 712.857 699.22 713.402 699.414C724.02 703.097 734.256 707.799 743.966 713.456C744.329 713.671 744.742 713.786 745.165 713.788C745.566 713.792 745.962 713.691 746.312 713.495C746.663 713.299 746.956 713.015 747.162 712.671C759.92 692.08 767.433 668.678 769.043 644.514C769.066 644.191 769.023 643.866 768.918 643.56C768.812 643.254 768.647 642.972 768.431 642.73C768.212 642.496 767.948 642.309 767.655 642.178C767.362 642.048 767.046 641.978 766.726 641.972H721.246L721.233 641.998ZM475.041 641.998C474.719 641.993 474.4 642.058 474.105 642.189C473.811 642.32 473.548 642.514 473.337 642.757C473.114 642.994 472.944 643.275 472.838 643.583C472.733 643.89 472.694 644.217 472.724 644.54C474.334 668.705 481.847 692.107 494.605 712.697C494.926 713.224 495.441 713.603 496.039 713.752C496.638 713.902 497.271 713.81 497.801 713.496C507.515 707.846 517.75 703.144 528.366 699.454C528.911 699.258 529.367 698.871 529.649 698.364C529.93 697.858 530.018 697.266 529.897 696.699C525.823 679.52 523.49 661.974 522.932 644.327C522.911 643.715 522.654 643.135 522.215 642.708C521.775 642.281 521.187 642.041 520.575 642.038H475.055L475.041 641.998ZM540.045 641.998C539.726 641.996 539.409 642.059 539.116 642.185C538.822 642.311 538.558 642.497 538.341 642.73C538.12 642.962 537.949 643.236 537.837 643.536C537.725 643.835 537.674 644.154 537.688 644.474C538.269 660.502 540.446 676.431 544.187 692.028C544.262 692.331 544.397 692.615 544.585 692.865C544.772 693.114 545.009 693.323 545.279 693.479C545.642 693.693 546.056 693.808 546.478 693.811C546.675 693.808 546.871 693.785 547.064 693.745C568.051 688.384 589.574 685.393 611.228 684.828C611.841 684.807 612.422 684.55 612.849 684.111C613.276 683.672 613.516 683.084 613.519 682.472V644.381C613.519 643.756 613.271 643.157 612.829 642.715C612.386 642.273 611.787 642.025 611.162 642.025L540.045 641.998ZM630.606 641.998C629.98 641.998 629.381 642.247 628.939 642.688C628.497 643.13 628.248 643.729 628.248 644.354V682.445C628.252 683.058 628.492 683.645 628.919 684.084C629.346 684.524 629.927 684.78 630.539 684.801C652.194 685.366 673.716 688.357 694.704 693.718C694.897 693.758 695.093 693.781 695.29 693.785C695.712 693.786 696.127 693.671 696.488 693.452C696.759 693.296 696.995 693.087 697.182 692.838C697.37 692.589 697.505 692.304 697.58 692.001C701.304 676.402 703.48 660.473 704.079 644.447C704.094 644.128 704.044 643.808 703.932 643.509C703.819 643.209 703.648 642.935 703.427 642.704C703.209 642.47 702.945 642.285 702.652 642.159C702.358 642.033 702.042 641.969 701.722 641.972L630.606 641.998ZM745.138 555.488C744.717 555.487 744.304 555.597 743.939 555.807C734.237 561.479 724 566.182 713.375 569.849C712.83 570.043 712.376 570.432 712.101 570.94C711.826 571.449 711.748 572.041 711.884 572.604C715.958 589.783 718.291 607.329 718.849 624.976C718.866 625.589 719.122 626.171 719.562 626.599C720.002 627.026 720.592 627.265 721.206 627.265H766.832C767.155 627.27 767.474 627.205 767.769 627.074C768.063 626.943 768.326 626.749 768.537 626.506C768.76 626.27 768.93 625.988 769.036 625.681C769.141 625.373 769.18 625.047 769.15 624.723C767.539 600.558 760.026 577.156 747.269 556.566C747.046 556.227 746.744 555.948 746.389 555.751C746.034 555.554 745.637 555.445 745.231 555.435L745.138 555.488ZM695.237 575.452C695.04 575.456 694.843 575.478 694.65 575.519C673.661 580.867 652.139 583.858 630.486 584.436C629.873 584.456 629.293 584.713 628.866 585.152C628.439 585.592 628.198 586.179 628.195 586.791V624.883C628.195 625.507 628.443 626.107 628.886 626.548C629.328 626.99 629.927 627.238 630.552 627.238H701.656C701.975 627.241 702.291 627.177 702.585 627.051C702.878 626.925 703.142 626.74 703.36 626.506C703.581 626.275 703.753 626.001 703.865 625.701C703.977 625.402 704.028 625.082 704.013 624.763C703.432 608.735 701.255 592.805 697.514 577.209C697.444 576.904 697.311 576.617 697.123 576.367C696.935 576.117 696.696 575.909 696.422 575.758C696.089 575.566 695.714 575.46 695.33 575.452H695.237ZM546.384 575.452C545.962 575.45 545.547 575.565 545.186 575.785C544.647 576.107 544.255 576.628 544.094 577.235C540.371 592.835 538.194 608.763 537.595 624.789C537.581 625.109 537.631 625.428 537.743 625.727C537.856 626.027 538.027 626.301 538.247 626.533C538.465 626.766 538.729 626.952 539.023 627.078C539.316 627.204 539.633 627.268 539.952 627.265H611.055C611.68 627.265 612.28 627.017 612.722 626.575C613.164 626.133 613.412 625.534 613.412 624.909V586.778C613.409 586.166 613.169 585.578 612.742 585.139C612.315 584.7 611.734 584.443 611.122 584.422C589.467 583.858 567.944 580.867 546.957 575.505C546.801 575.462 546.639 575.444 546.478 575.452H546.384ZM496.523 555.488C496.122 555.486 495.726 555.587 495.376 555.783C495.026 555.979 494.733 556.263 494.525 556.606C481.767 577.196 474.254 600.598 472.644 624.763C472.622 625.086 472.665 625.41 472.77 625.716C472.875 626.023 473.041 626.305 473.257 626.546C473.476 626.78 473.74 626.968 474.032 627.098C474.325 627.228 474.641 627.299 474.961 627.305H520.481C521.094 627.302 521.682 627.062 522.122 626.635C522.561 626.208 522.818 625.628 522.839 625.016C523.378 607.368 525.712 589.82 529.804 572.644C529.94 572.076 529.859 571.478 529.575 570.968C529.292 570.458 528.827 570.073 528.272 569.889C517.652 566.213 507.415 561.51 497.708 555.847C497.386 555.623 497.008 555.489 496.616 555.461L496.523 555.488ZM630.566 487.291C630.026 487.291 629.502 487.469 629.074 487.797C628.801 488.021 628.581 488.304 628.432 488.624C628.282 488.944 628.206 489.294 628.208 489.647V567.347C628.209 567.665 628.274 567.981 628.4 568.273C628.526 568.566 628.71 568.83 628.941 569.05C629.157 569.262 629.413 569.429 629.694 569.541C629.976 569.653 630.276 569.708 630.579 569.702H630.646C650.817 569.175 670.867 566.412 690.429 561.464C690.743 561.382 691.037 561.237 691.293 561.038C691.55 560.839 691.763 560.59 691.92 560.306C692.078 560.02 692.173 559.703 692.198 559.377C692.224 559.051 692.179 558.723 692.067 558.416C678.749 519.566 655.949 492.988 631.085 487.318L630.566 487.291ZM611.068 487.291C610.898 487.293 610.728 487.316 610.562 487.358C585.698 493.014 562.912 519.566 549.581 558.416C549.477 558.725 549.437 559.051 549.462 559.376C549.487 559.7 549.578 560.017 549.727 560.306C549.879 560.594 550.091 560.846 550.348 561.046C550.605 561.245 550.902 561.388 551.219 561.464C570.784 566.391 590.832 569.154 611.002 569.702H611.068C611.677 569.697 612.261 569.464 612.707 569.05C612.938 568.831 613.121 568.567 613.245 568.274C613.369 567.981 613.43 567.665 613.426 567.347V489.62C613.431 489.309 613.374 489.001 613.257 488.713C613.141 488.424 612.967 488.163 612.747 487.943C612.527 487.723 612.265 487.549 611.977 487.433C611.689 487.316 611.38 487.259 611.068 487.265V487.291ZM681.479 499.376C681.122 499.373 680.768 499.453 680.447 499.61C680.125 499.767 679.845 499.997 679.628 500.281C679.301 500.702 679.123 501.219 679.123 501.752C679.123 502.284 679.301 502.802 679.628 503.222C691.574 518.45 700.686 535.697 706.53 554.144C706.751 554.72 707.178 555.194 707.728 555.475C708.048 555.614 708.392 555.686 708.741 555.688C709.014 555.692 709.286 555.642 709.54 555.541C718.306 552.424 726.775 548.527 734.843 543.896C735.136 543.718 735.387 543.481 735.58 543.198C735.773 542.916 735.903 542.595 735.962 542.259C736.016 541.921 735.999 541.577 735.912 541.247C735.825 540.917 735.669 540.609 735.456 540.342C721.062 522.902 702.911 508.939 682.358 499.496C682.114 499.41 681.858 499.361 681.599 499.349L681.479 499.376ZM560.142 499.376C559.802 499.377 559.466 499.449 559.156 499.589C538.593 509.035 520.429 522.997 506.018 540.435C505.805 540.702 505.65 541.01 505.563 541.34C505.476 541.67 505.458 542.015 505.512 542.352C505.57 542.689 505.7 543.01 505.893 543.292C506.086 543.575 506.338 543.812 506.631 543.989C514.71 548.589 523.177 552.473 531.935 555.594C532.189 555.696 532.46 555.745 532.734 555.741C533.082 555.743 533.428 555.671 533.746 555.528C534.026 555.4 534.277 555.216 534.483 554.987C534.69 554.758 534.846 554.489 534.944 554.197C540.796 535.754 549.907 518.507 561.846 503.276C562.173 502.855 562.351 502.338 562.351 501.805C562.351 501.272 562.173 500.755 561.846 500.334C561.675 500.055 561.439 499.82 561.159 499.648C560.879 499.477 560.562 499.375 560.235 499.349L560.142 499.376Z" fill="white"/>
</g>
<defs>
<linearGradient id="paint0_linear_1333_573" x1="455.396" y1="1112.43" x2="499.128" y2="902.778" gradientUnits="userSpaceOnUse">
<stop stop-color="#36D9FF"/>
<stop offset="1" stop-color="#680EE6"/>
</linearGradient>
<linearGradient id="paint1_linear_1333_573" x1="351.562" y1="814.564" x2="954.467" y2="821.493" gradientUnits="userSpaceOnUse">
<stop stop-color="#36D9FF"/>
<stop offset="1" stop-color="#680EE6"/>
</linearGradient>
<linearGradient id="paint2_linear_1333_573" x1="921.186" y1="567.975" x2="1165.14" y2="1024.46" gradientUnits="userSpaceOnUse">
<stop stop-color="#36D9FF"/>
<stop offset="1" stop-color="#4A00C5"/>
</linearGradient>
<linearGradient id="paint3_linear_1333_573" x1="347.474" y1="965.014" x2="950.553" y2="969.561" gradientUnits="userSpaceOnUse">
<stop stop-color="#36D9FF"/>
<stop offset="1" stop-color="#4A00C5"/>
</linearGradient>
<linearGradient id="paint4_linear_1333_573" x1="440.166" y1="855.675" x2="484.123" y2="646.244" gradientUnits="userSpaceOnUse">
<stop stop-color="#00E5C2"/>
<stop offset="1" stop-color="#1899D9"/>
</linearGradient>
<linearGradient id="paint5_linear_1333_573" x1="336.364" y1="557.969" x2="939.269" y2="564.899" gradientUnits="userSpaceOnUse">
<stop stop-color="#00E5C2"/>
<stop offset="1" stop-color="#1899D9"/>
</linearGradient>
<linearGradient id="paint6_linear_1333_573" x1="810.389" y1="513.674" x2="1056.34" y2="513.674" gradientUnits="userSpaceOnUse">
<stop stop-color="#36D9FF"/>
<stop offset="1" stop-color="#00E5C2"/>
</linearGradient>
<linearGradient id="paint7_linear_1333_573" x1="332.31" y1="708.355" x2="935.389" y2="712.902" gradientUnits="userSpaceOnUse">
<stop stop-color="#00E5C2"/>
<stop offset="1" stop-color="#1899D9"/>
</linearGradient>
<clipPath id="clip0_1333_573">
<rect width="1254" height="1254" fill="white"/>
</clipPath>
</defs>
</svg>
